<svg id="Capa_1" data-name="Capa 1" xmlns="http://www.w3.org/2000/svg" viewBox="0 0 179.35 19"><defs><style>.cls-1{fill:#7b1716;}</style></defs><path class="cls-1" d="M18.07,90.5H14.28a4,4,0,0,0-3.06,1,3.84,3.84,0,0,0-.9,2.66v11.66a3.83,3.83,0,0,0,.9,2.66,4,4,0,0,0,3.06,1h3.79a3.94,3.94,0,0,0,3.05-1,3.83,3.83,0,0,0,.9-2.66v-3.31H17.31v2.93a.63.63,0,0,1-.16.48.66.66,0,0,1-.51.17H15.7a.7.7,0,0,1-.51-.17.63.63,0,0,1-.16-.48V94.55a.63.63,0,0,1,.16-.48.7.7,0,0,1,.51-.17h.94a.66.66,0,0,1,.51.17.63.63,0,0,1,.16.48v3H22V94.17a3.84,3.84,0,0,0-.9-2.66A3.94,3.94,0,0,0,18.07,90.5Z" transform="translate(-10.32 -90.5)"/><path class="cls-1" d="M34.54,101.75a3.85,3.85,0,0,0,.9-2.67V94.17a3.84,3.84,0,0,0-.9-2.66,3.94,3.94,0,0,0-3.05-1h-8v19h4.7v-6.75h.31l2.73,6.75H36.3l-3.18-6.94A3,3,0,0,0,34.54,101.75ZM30.06,94.2a.69.69,0,0,1,.51.16.66.66,0,0,1,.16.49v3.73a.66.66,0,0,1-.16.49.69.69,0,0,1-.51.16H28.2v-5Z" transform="translate(-10.32 -90.5)"/><polygon class="cls-1" points="31.43 11.28 36.3 11.28 36.3 7.58 31.43 7.58 31.43 3.7 37.08 3.7 37.08 0 31.43 0 28.39 0 26.73 0 26.73 19 28.39 19 31.43 19 37.32 19 37.32 15.3 31.43 15.3 31.43 11.28"/><polygon class="cls-1" points="46.47 10.15 43.67 0 38.53 0 38.53 19 42.73 19 42.73 6.99 44.85 14.89 48.08 14.89 50.23 6.92 50.23 19 54.4 19 54.4 0 49.26 0 46.47 10.15"/><path class="cls-1" d="M70,90.5l-4.43,19h4.62l.57-2.84h4.13l.55,2.84h4.73l-4.44-19ZM71.45,103l1.36-6.84L74.14,103Z" transform="translate(-10.32 -90.5)"/><path class="cls-1" d="M88.54,90.5H84.75a3.94,3.94,0,0,0-3,1,3.84,3.84,0,0,0-.9,2.66v11.66a3.83,3.83,0,0,0,.9,2.66,3.94,3.94,0,0,0,3,1h3.79a4,4,0,0,0,3.06-1,3.83,3.83,0,0,0,.9-2.66v-3.31H87.79v2.93a.63.63,0,0,1-.16.48.7.7,0,0,1-.51.17h-.94a.7.7,0,0,1-.51-.17.63.63,0,0,1-.16-.48V94.55a.63.63,0,0,1,.16-.48.7.7,0,0,1,.51-.17h.94a.7.7,0,0,1,.51.17.63.63,0,0,1,.16.48v3H92.5V94.17a3.84,3.84,0,0,0-.9-2.66A4,4,0,0,0,88.54,90.5Z" transform="translate(-10.32 -90.5)"/><path class="cls-1" d="M101.16,105.15a.59.59,0,0,1-.68.65H99.35a.69.69,0,0,1-.51-.16.7.7,0,0,1-.16-.49V90.5H94v15.33a3.83,3.83,0,0,0,.9,2.66,3.94,3.94,0,0,0,3.05,1h4a3.94,3.94,0,0,0,3-1,3.83,3.83,0,0,0,.9-2.66V90.5h-4.7Z" transform="translate(-10.32 -90.5)"/><path class="cls-1" d="M111.11,90.5l-4.44,19h4.62l.57-2.84H116l.55,2.84h4.73l-4.44-19ZM112.59,103,114,96.15l1.32,6.84Z" transform="translate(-10.32 -90.5)"/><path class="cls-1" d="M130.28,90.5h-7.93v19h7.93a3.94,3.94,0,0,0,3.05-1,3.83,3.83,0,0,0,.9-2.66V94.17a3.84,3.84,0,0,0-.9-2.66A3.94,3.94,0,0,0,130.28,90.5Zm-.76,7.93v7a.63.63,0,0,1-.16.48.66.66,0,0,1-.51.17h-1.8V93.9h1.8a.66.66,0,0,1,.51.17.63.63,0,0,1,.16.48v3.88Z" transform="translate(-10.32 -90.5)"/><path class="cls-1" d="M153,90.5,148.62,109l-3-6.47a3,3,0,0,0,1.41-.81,3.85,3.85,0,0,0,.9-2.67V94.17a3.84,3.84,0,0,0-.9-2.66,3.94,3.94,0,0,0-3-1h-8v19h4.71v-6.75h.3l2.74,6.75h9.35l.57-2.84h4.13l.55,2.84h4.73l-4.44-19Zm-10.36,3.7a.59.59,0,0,1,.68.65v3.73a.59.59,0,0,1-.68.65h-1.85v-5ZM154.43,103l1.37-6.84,1.32,6.84Z" transform="translate(-10.32 -90.5)"/><path class="cls-1" d="M172.12,90.5h-7.93v19h7.93a3.94,3.94,0,0,0,3-1,3.83,3.83,0,0,0,.9-2.66V94.17a3.84,3.84,0,0,0-.9-2.66A3.94,3.94,0,0,0,172.12,90.5Zm-.76,7.93v7a.63.63,0,0,1-.16.48.66.66,0,0,1-.51.17h-1.8V93.9h1.8a.66.66,0,0,1,.51.17.63.63,0,0,1,.16.48v3.88Z" transform="translate(-10.32 -90.5)"/><path class="cls-1" d="M188.78,91.51a4,4,0,0,0-3.06-1h-4a3.94,3.94,0,0,0-3.05,1,3.84,3.84,0,0,0-.9,2.66v11.66a3.83,3.83,0,0,0,.9,2.66,3.94,3.94,0,0,0,3.05,1h4a4,4,0,0,0,3.06-1,3.83,3.83,0,0,0,.9-2.66V94.17A3.84,3.84,0,0,0,188.78,91.51ZM185,98.43v6.72a.66.66,0,0,1-.16.49.69.69,0,0,1-.51.16h-1.13a.69.69,0,0,1-.51-.16.66.66,0,0,1-.16-.49V94.85a.66.66,0,0,1,.16-.49.69.69,0,0,1,.51-.16h1.13a.69.69,0,0,1,.51.16.66.66,0,0,1,.16.49v3.58Z" transform="translate(-10.32 -90.5)"/></svg>