<svg id="Capa_1" data-name="Capa 1" xmlns="http://www.w3.org/2000/svg" viewBox="0 0 109.15 116.86"><defs><style>.cls-1{fill:#7b1716;}</style></defs><path class="cls-1" d="M88.41,99h-7.6L65,139.6h8.12l3.64-9.48H92.39L96,139.6h8.18Zm-8.75,23.44,4.87-13.14,4.9,13.14Z" transform="translate(-45.42 -41.57)"/><polygon class="cls-1" points="7.71 46.26 21.82 46.26 21.82 38.55 0 38.55 0 116.86 21.82 116.86 21.82 109.15 7.71 109.15 7.71 46.26"/><polygon class="cls-1" points="56.48 46.26 70.6 46.26 70.6 109.15 56.48 109.15 56.48 116.86 78.3 116.86 78.3 38.55 56.48 38.55 56.48 46.26"/><polygon class="cls-1" points="101.44 0 93.73 0 86.02 0 86.02 7.71 93.73 7.71 101.44 7.71 101.44 15.42 109.15 15.42 109.15 7.71 109.15 0 101.44 0"/><polygon class="cls-1" points="93.73 23.13 93.73 15.42 86.02 15.42 86.02 23.13 86.02 30.84 93.73 30.84 101.44 30.84 109.15 30.84 109.15 23.13 101.44 23.13 93.73 23.13"/></svg>