<svg id="Capa_1" data-name="Capa 1" xmlns="http://www.w3.org/2000/svg" viewBox="0 0 140.02 169.61"><defs><style>.cls-1{fill:#7b1716;}</style></defs><path class="cls-1" d="M112,158l2.72-.68c4-1,7.82-.25,11.67.6a20.55,20.55,0,0,0,13-1.14,18.28,18.28,0,0,1,6.52-1.28,5.19,5.19,0,0,1,5.08,4,7.16,7.16,0,0,0,7.45,5.63c2.92-.14,5.82-.66,8.74-.84a10.19,10.19,0,0,1,2.87.7,15.23,15.23,0,0,1-2,2.37c-1.85,1.52-4,2.74-5.68,4.38a10.54,10.54,0,0,1-6.6,2.75,45.61,45.61,0,0,1-5.23.07q-7-.15-14-.4c-.75,0-1.48-.22-2.23-.28-2.09-.18-4.07.12-5.3,2-1.48,2.3-3.73,2.71-6.16,2.87a51.15,51.15,0,0,1-20.09-2.57,32.36,32.36,0,0,0-6.42-1.36c1.35,2.8,3.07,5.09,6.08,6.11a20.8,20.8,0,0,1,2.82,1,1.68,1.68,0,0,1,.89,1.24,1.74,1.74,0,0,1-1,1.16,8.11,8.11,0,0,1-2.74.55c-5,0-10.1.06-15.13-.21a17.74,17.74,0,0,1-6.3-1.63c-4.06-1.87-8.31-2.47-12.69-2.84-3-.24-5.88-1-8.82-1.45a55.24,55.24,0,0,0-6.63-.89A37.22,37.22,0,0,1,37,174.2a9.93,9.93,0,0,1-5.73-6.75c-.26-1.07-1-2-1.23-3.12a2.6,2.6,0,0,1,.33-2,1.92,1.92,0,0,1,1.82-.13c1.84,1,3.59,2.16,5.36,3.28.36.22.68.69,1,.72,4.89.47,9.82,1.37,13.78-3,2.94-3.22,6.87-3.77,11.05-3.29,2.74.31,5.5.44,8.25.66l.14-.55a5.91,5.91,0,0,0-.8-.62c-10.32-5.8-16.7-14.79-20.69-25.68-4.4-12-5.43-24.56-4.69-37.27a121,121,0,0,1,10.09-43c5.06-11.29,11.39-21.8,19.92-30.84a22.28,22.28,0,0,1,15.48-7.43c6-.28,10.69,2.35,14.56,6.78,1.71,2,3.54,3.82,5.42,5.61a47.38,47.38,0,0,1,9.64,13.51c6.59,13.23,10.1,27.34,11.72,42a132.59,132.59,0,0,1,0,32.89c-1.66,12-4.82,23.52-12.33,33.33C117.71,152.48,114.64,155.17,112,158ZM79.06,173.18,75.8,173l1.1,1.35H73.14l1.17.9-2.18.51a22.19,22.19,0,0,0,11,6.33,25.92,25.92,0,0,0,9.18.77,20.17,20.17,0,0,1,7.35.07,27.07,27.07,0,0,0,4.24.4l.13-.87c-2.45-.52-4.91-1-7.34-1.58-2-.46-4-.72-5.76-2.86l3.6.76-1.21-1.47,3.57,1.94a32,32,0,0,0-2.69-4.67,7,7,0,0,0-7.43-2.73L90,173.19a1.31,1.31,0,0,1-1.24.15c-1.51-.54-3-1.44-4.53-1.56a20.26,20.26,0,0,0-5.12.75c-.07,0-.07.45-.1.68ZM101.74,24.92l.37-2.19L100.85,21a8.6,8.6,0,0,1,2.38,1.63c.66.61,1.28,1.28,1.92,1.92-2.93-4.15-6.53-7.17-11.85-7.62C87.08,16.44,82,18.9,77.8,23.08a85.67,85.67,0,0,0-9,11A113.29,113.29,0,0,0,49.91,77.33c-3.06,14.75-4,29.53-1,44.43,1.77,8.81,4.72,17.12,10.14,24.34C67.17,157,78,163,91.81,162c12.06-.84,21.83-6.3,28.64-16.47,7.27-10.87,9.79-23.23,10.82-36A139,139,0,0,0,130,78a117.3,117.3,0,0,0-11.24-36.69c-2.65-5.19-5.91-9.93-10.76-13.44l2.34,3.1-.25.18-1.73-1.61v1.61l-2.52-3c.73,3.27,1.51,6.75,2.28,10.23-1.28-2.67-2.16-5.45-3.26-8.14a44.68,44.68,0,0,0-2.46-4.56ZM145,156.8c-2-.3-3.92.51-5.89,1.21a19.94,19.94,0,0,1-4.81,1.38,18.88,18.88,0,0,0-10.7,3.93l-3.07,2.41-.31-.38,4.3-4.06L120.19,163l-.14-.29,2.84-1.63-2.3-1,4.89-.68,0-.46-5.49.46,0-.27,2.53-.46c-8.73-1.48-15.17,2-20.82,8.62l6.21-1s-.1.27-.06.17a19,19,0,0,1,1.63,1.86,21.34,21.34,0,0,1,1.42,2.62c.56,1.18,1.32,1.87,2.63,1.11,1.72-1,3.41-2.07,5-3-1,2.07-2,4.29-4.9,4.9.23.37.28.57.42.67,4.89,3.45,12.37,3.85,15.84-3a13.9,13.9,0,0,1,8.06-6.9,7.53,7.53,0,0,0,4.07-3.36C142.91,159.74,144,158.32,145,156.8ZM47.38,169.5l0,.24,11.31-1A31,31,0,0,1,47.56,171l1.53.37,0,.21H46.32l2,1a7.59,7.59,0,0,0-.8.11,2.5,2.5,0,0,0-.46.27c3.72,2.54,7.5,3.56,11.93,2.22,2.4-.73,5.17-1.3,7.52-.79,3.34.72,5.68-1.21,8.51-2.05L69.63,171l.08-.37L76,171.85l.07-.23-2.74-1.12.1-.31,5.31,1.24.13-.61-4.39-1,.16-.67,6.73,1.52.08-.26-3.61-1.38.11-.38,5,1.23.09-.2-3.57-1.94,9.18,2.34c-8.1-7.56-16.77-8.09-26.11-2.5l-.09-.5,3.29-2.26H63.86l0-.25,1.66-.67-.11-.45-6,.6a17.89,17.89,0,0,1,11.11-1,54.54,54.54,0,0,0-6.91-1.73A10.94,10.94,0,0,0,55,163c-3.4,2.39-6.38,5.46-11.2,4.72l.19.62,5.89-.49-1.35.93,3.67-.22,0,.43Zm65.47,6.19c-1.32-1.58-2.78-2.79-3.51-4.35-1.39-3-2.16-3.34-5.19-3.31a34.41,34.41,0,0,1-8.73-1.14c-2.18-.56-4.17-1.86-6.37-2.9.44,2.24,1.67,3.14,3,2.83L98.65,172l-.78-1.88,3.22,2.71-.57-1.61a11.25,11.25,0,0,0,1.93,1.5c1.2.54,2.53,1.38,3.71,1.25,1.71-.2,3.22-.44,4.69.67A14.26,14.26,0,0,0,112.85,175.69Zm34.61-5.28-.18.44a8.41,8.41,0,0,0,1.9,1.36,11.79,11.79,0,0,0,10.45-.78c2.75-1.62,5.26-3.67,7.86-5.54.06,0,0-.22,0-.68l-12.85,2.48,1.62-.88a12.48,12.48,0,0,0-3,.92,15.25,15.25,0,0,1-3.1.45c-1,.07-1.95,0-2.92,0v.43h7.25c-2.65,1.58-5.24.62-7.73.94l4.38.54,0,.31ZM47.17,174.76c-.84-.89-1.77-1.95-2.79-2.92a3.14,3.14,0,0,0-1.71-1c-2.85-.13-4.44-1.94-5.86-4.08-1.29-1.93-3.47-2.27-5.4-3.21.52,1.66.87,3.11,1.44,4.47a8.56,8.56,0,0,0,1.62,2.42c.27.3,1,.08,1.45.31a25,25,0,0,1,2.88,1.77A12.7,12.7,0,0,0,47.17,174.76Zm13.54,1.34v.53l13.35,2.18c-5.51-3.89-8.34-4.75-11.29-3.13,2.62-.44,4.77-.32,6.57,1.41Zm33.85-11.88c3,2.72,5.79,2.69,9.11-.75Zm55-5.11c-1-.63-1.75-1.44-2.64-1.6-.62-.1-1.39.69-2.1,1.09Z" transform="translate(-29.99 -15.19)"/><path class="cls-1" d="M102.35,25.7l.39,1.8-5-5.85.35-.36,3.64,3.63Z" transform="translate(-29.99 -15.19)"/><path class="cls-1" d="M117.59,43.94l-.88-2.9c2.05,2.75,7.83,19.59,7.94,23.4l-1.15-3.37c1.28,7.91,2.55,15.81,3.72,23-.06-1.25-.1-3.24-.26-5.21s-.41-4-.67-6a54.62,54.62,0,0,1-.65-6.07c4.79,23,6.65,45.83-2.79,68.33l2.64-5.73c-1.06,5.17-3.52,9.7-6.3,14.18l1.09-1,.36.26c-1.92,2.56-3.65,5.28-5.8,7.63-4.27,4.71-9.34,8.51-15.73,9.52-4.75.76-9.66,1.13-14.5,0,1.61,0,3.22.08,4.82,0a30.52,30.52,0,0,0,5-.77,40.77,40.77,0,0,1-17.11-1.83l1.57,1.25c-8.89-1.37-17.74-11.1-20.22-17.84l8.76,10.81.52-.42-5.67-6.66.34-.31c2.74,2.54,4.51,6.16,8.25,7.74l-4-4.35,5.07,3.8.55-.62-4.39-3.1.69-.71c2.51.21,3.72,2.07,4.86,4l2.91,1.7c4,2.35,8.21,3.62,12.88,2.87l-7.1-.78,0-.55c3.52-.19,7.14,1.17,10.95-.72l-5.85.8c.54-.47.67-.67.84-.72,3-.89,6-1.67,8.94-2.66,6-2,9.82-6.38,12.51-11.91,1.91-3.92,3.93-7.79,5.76-11.75,3.31-7.17,4.54-14.88,5.67-22.6a130.09,130.09,0,0,0-.08-37c-1.22-8.82-2.65-17.66-5.74-26.07-1.07-2.9-2.65-5.62-3.88-8.5,1.62,2.3,3.53,4.4,4.44,7.19a32.56,32.56,0,0,0,1.67,3.54,8,8,0,0,0,.13,2c.61,2,1.33,3.87,2,5.81.56,1.68,1.07,3.37,1.61,5l.6-.2ZM119,139.1c5.14-5.84,11.11-32.33,9.42-41.52C127.9,112,125.41,126,119,139.1ZM122.46,105a105,105,0,0,0,.35-32.19C124,83.61,123.48,94.34,122.46,105ZM80.57,157.37l-.07.61,10,1.06.06-.56ZM122.51,120l-.47-.12-2.64,7.83.4.14Q121.17,123.87,122.51,120Z" transform="translate(-29.99 -15.19)"/><path class="cls-1" d="M118.56,108.69a80.93,80.93,0,0,1-9.84,20.67c6.19-13.38,10.61-27.24,11.92-42.05a9.27,9.27,0,0,1,.12,1.73c-.6,5.83-1.61,11.64-1.76,17.47s-2.12,11.24-3.75,16.68c-2.8,9.35-7.08,17.9-15.64,23.48-1.1.71-2.28,1.29-3.44,1.89a7.75,7.75,0,0,1-1.26.42c2.26-1.76,4.52-3.35,6.58-5.17,3.53-3.12,5.48-7.43,7.57-11.47,3.77-7.3,7.42-14.72,9.35-22.8C118.47,109.26,118.51,109,118.56,108.69Z" transform="translate(-29.99 -15.19)"/><path class="cls-1" d="M116.24,67c3.27,8,.6,37.31-3.43,44.49,1.07-6.74,2.71-14.19,3.3-21.71S116.24,74.64,116.24,67Z" transform="translate(-29.99 -15.19)"/><path class="cls-1" d="M114.34,60.6c1.79,14.86,1.93,29.61-3.12,44C115.31,90.15,114.91,75.38,114.34,60.6Z" transform="translate(-29.99 -15.19)"/><path class="cls-1" d="M88.82,150.94c3.14,1.18,5.78-.08,8.05-1.55a87.08,87.08,0,0,0,8.27-6.64c.3-.25.41-.71.8-.88a14.16,14.16,0,0,1-8.81,8.56c-2.17.8-4.58.95-6.84,1.54-1.41.36-2.74,1-4.12,1.5a3.31,3.31,0,0,1-2.07.16l3.07-1.9-2.25-.52,6.68-3.28Z" transform="translate(-29.99 -15.19)"/><path class="cls-1" d="M120.52,77.85c-.85-6.43-1.44-12.9-2.64-19.26s-3-12.54-4.65-19.11A97.85,97.85,0,0,1,120.52,77.85Z" transform="translate(-29.99 -15.19)"/><path class="cls-1" d="M119.33,79.48c1.61,9-.89,18.18-3.32,27.69C117.17,97.48,118.3,88.07,119.33,79.48Z" transform="translate(-29.99 -15.19)"/><path class="cls-1" d="M51.79,112.14c-1.81-7-1.14-23.25,1.4-32.13-.47,5.36-1.12,10.54-1.34,15.75S51.79,106.36,51.79,112.14Z" transform="translate(-29.99 -15.19)"/><path class="cls-1" d="M50.29,92.65c-.65,11.83,0,23.54,3,35.05C49.59,116.24,49,104.52,50.29,92.65Z" transform="translate(-29.99 -15.19)"/><path class="cls-1" d="M110.21,120.42c-2.59,7.79-5.49,15.41-12,21C103.32,135,107,127.84,110.21,120.42Z" transform="translate(-29.99 -15.19)"/><path class="cls-1" d="M58.07,125.19c-2.1-5.06-3.36-15.77-2.76-21.49Z" transform="translate(-29.99 -15.19)"/><path class="cls-1" d="M113,74.49q-.42-9.3-.85-18.62l.73,0q.3,9.31.62,18.63Z" transform="translate(-29.99 -15.19)"/><path class="cls-1" d="M58.49,137.93c-3.31-5.48-4.86-12-5.84-18.56C54.61,125.59,56.62,132,58.49,137.93Z" transform="translate(-29.99 -15.19)"/><path class="cls-1" d="M68.68,144.77c-.31,0-.7.08-.91-.07-2.78-2-6.19-7.65-6.58-11.33.26.56.49,1.12.77,1.67,1.78,3.59,3.48,7.26,6.79,9.8Z" transform="translate(-29.99 -15.19)"/><path class="cls-1" d="M77.3,28.89,69.91,39.14C70.31,36.91,74.38,31.06,77.3,28.89Z" transform="translate(-29.99 -15.19)"/><path class="cls-1" d="M99.93,142.43l7.5-10.12.55.4q-3.81,5.06-7.61,10.1Z" transform="translate(-29.99 -15.19)"/><path class="cls-1" d="M68.75,144.84l-3.11-6,.25-.12,4.63,5.06-2-.84,1.57,2.9-1.43-1Z" transform="translate(-29.99 -15.19)"/><path class="cls-1" d="M110.45,47.2c.44,3.41.88,6.83,1.31,10.24l-.63.08L109.9,47.27Z" transform="translate(-29.99 -15.19)"/><path class="cls-1" d="M57.93,132.18l-2.16-9.24.45-.1c.77,3.07,1.55,6.15,2.33,9.22Z" transform="translate(-29.99 -15.19)"/><path class="cls-1" d="M68.75,43.81l3.37-6.33.68.37-3.57,6.21Z" transform="translate(-29.99 -15.19)"/><path class="cls-1" d="M103.32,123.63c-1,1.93-2,3.85-3,5.78l-.59-.3,3.08-5.78Z" transform="translate(-29.99 -15.19)"/><path class="cls-1" d="M77,150.36l5.11,1.32C80.7,152.69,78.12,152,77,150.36Z" transform="translate(-29.99 -15.19)"/><path class="cls-1" d="M76.58,152.73,73.67,151l5.07,1.3-.17.72Z" transform="translate(-29.99 -15.19)"/><path class="cls-1" d="M64.48,52.78l3-6.62.41.18L65,53Z" transform="translate(-29.99 -15.19)"/><path class="cls-1" d="M102.65,121.74l2.48-5.24.46.22c-.83,1.78-1.65,3.57-2.47,5.35Z" transform="translate(-29.99 -15.19)"/><path class="cls-1" d="M118.16,158.84l-6.43,3.46,1.45-1.87-4.28,2.12A11,11,0,0,1,118.16,158.84Z" transform="translate(-29.99 -15.19)"/><path class="cls-1" d="M79,173.21c2.63-.47,2.67-.46,6.19,2.08l-6.16-2.12S79,173.21,79,173.21Z" transform="translate(-29.99 -15.19)"/><path class="cls-1" d="M84.32,179.51l5.94,1.32-.11.55-5.9-1.49Z" transform="translate(-29.99 -15.19)"/></svg>