<svg id="Capa_1" data-name="Capa 1" xmlns="http://www.w3.org/2000/svg" viewBox="0 0 135.95 130.37"><defs><style>.cls-1{fill:#7b1716;}</style></defs><path class="cls-1" d="M94.8,144.4l-20.26-3.82a73.75,73.75,0,0,1-33-15.1c-5.44-4.36-9.22-10.75-9.4-20.74C32,96.84,32,88.9,32.26,81A20,20,0,0,1,37.2,68.09c6.46-7.54,13.95-11.48,21.6-14.62,19.69-8.1,39.72-9.87,60-7,12.39,1.76,24.57,5,36.29,11.76,10.08,5.85,12.67,11.11,12.89,27.7.1,7.7-.15,15.41,0,23.11.08,6.55-1.79,11.29-5.1,14.93-7.32,8.07-15.6,12.66-24.24,15.91-9.94,3.73-20,4.79-30.23,4.89h-2.7c-1,7.8-2,9.37-5.36,9.29C96.49,154,95.75,152.66,94.8,144.4Zm62.8-45.47-.38-.08v.31l.3-.31,0-.15Zm3.12-6,.06.09-.14.21ZM93,100l-1.2.22-7.49,4.27-.32-.76c7.24-4.35,14.87-8,17.54-21.22-3.27-.35-6.48-.71-9.7-1-.35,0-.73.3-1.08.56-7.08,5.21-14.68,7.51-22.33,9.46-6,1.54-12,2.74-18,4.1A27.1,27.1,0,0,0,58,99.79c5.74,2,11.49,5.49,17.32.52,0,0,.19.2.4.44l-4,2.35.12.64h2.77l0-.06,4.74.79,0-.08c4.31,3.13,8.42,1.73,12.59-4.28.42-.06.83-.13,1.24-.22l-.09-.49Zm66.08,18.55-.35,2.48.76-.1-.45-2.34.11.14ZM156,98.24l-.9,1.8.41.33c.17-.7.33-1.41.5-2.11L155.33,97l-.35.83ZM150.73,128l-.85,2.13.75.32.07-2.41.82-3.12-.78-.34C150.12,125.54,148.94,126.36,150.73,128Zm-2.19,1.27-.84,2.21.72.31c0-.84.07-1.68.1-2.52.17-1.15.33-2.3.5-3.45l-.85-.11C148.05,126.9,146.56,128.09,148.54,129.27ZM42.78,94.45l-2.6-1.09,1.26,4.5,1.35-3.42c-.11,1.77-.65,3.8.94,4.56l.73-.68Zm105.35,14.08,1.58-2.71-1.05-.82c-.17,1.18-.35,2.35-.52,3.53v6.52l.82.2c.17-1.86.42-3.71.45-5.57C149.42,109.31,148.58,108.91,148.13,108.53ZM35.72,111.41c0,.39-.08.77,0,.14,0,.67,0,.29,0-.09l-1.3-26a1.75,1.75,0,0,0-.6,1.3q.66,12.13,1.39,24.26C35.2,111.15,35.54,111.26,35.72,111.41ZM54,73.06l0,.09.12-1.2a21.22,21.22,0,0,0,3.1,1.39c9,2.43,18,2.51,27.08,2.08,1.72-.09,2.72-1.19,3-3.81-7.18-2.76-14.18-6.5-20.11-13.41-2.38-2.79-4.3-3.22-6.84-1.88-1.24.65-2.58.85-3.81,1.52A17.92,17.92,0,0,0,54,59.94l.06-.09c-1.34.23-3.09-.92-3.47,2.49l0-.06c-1.48-1.93-2.42.3-3.55,1.09l.06-.07-2.25,2.23-4.75,3.34.25.85C44.93,70.85,49.48,72,54,73.06Zm85.47,29.38c-.37,1.22-1.08,2.45-1.07,3.66,0,8.63.19,17.25.31,25.87,0,1.4,0,2.79,0,4.19l.8.33a11.27,11.27,0,0,0,.7-2.86c-.2-10.42-.49-20.84-.73-31.21a12.32,12.32,0,0,1,.73,2.55c.34,4.9.7,9.8.83,14.71.14,5.14,0,10.3,0,15.44l.79.28a14.72,14.72,0,0,0,.59-3.2q-.69-14-1.57-28C140.88,103.57,140,103,139.51,102.44Zm-18-50.94h0c-1.42-2.95-3.31-1.77-5.11-1.4l.06.11L114,50.08l0,0c-.67-.17-1.47-.78-2-.42-1.48,1-2.79,2.61-4.28,3.54-3.79,2.38-3.8,6.93-3.11,12.49.86-1,1.56-1.86,2.27-2.69l0,0-2.34,5.39c1.82,0,3.59.63,5.08-.1a79.49,79.49,0,0,1,26.34-7.81c4.17-.49,8.34-1,12.51-1.55l0-1.19a45.74,45.74,0,0,0-7.13-.84c-3.53.12-7.06.73-10.58,1.13l-.05.1,10-2.46,0-.6-5-.82.05,0c-1.87-2.25-3.92-1.58-6-.88S126,54.73,124,55.43l0,.08,5.52-3.35-.14-.88-6.81,2,0,.08,2.81-2.06-.12-1ZM68.6,54.77,66,54.14l-.17,1.19L70,59.26l.19-.55L69,55.33c2,2.54,3.79,5.85,6.07,7.46,4.2,3,8.69,5,13.07,7.32a2.06,2.06,0,0,0,1.58,0c1.94-.69,3.87-1.48,6.11-2.35V56.94c0-4.55.62-5.78,3.19-6.46,3-.78,4.48.44,5.33,4.44l5.24-5.65c-.17-.2-.28-.43-.39-.44-10.55-1.42-21,.07-31.48,2.18-.16,0-.28.62-.43,1h0c-2.64.39-5.3.74-7.94,1.25C69.08,53.27,68.85,54.23,68.6,54.77Zm94.83,15.56.07.13c-.75-2.81-2.41-2.62-3.91-2.8-2.14-.26-4.28-.39-6.42-.57l0-.74,7.09.68.05-1.28c-5.45-2.74-11.17-.06-17-1.37l12.71-1.12a3.42,3.42,0,0,0-2.51-1.35c-2.78,0-5.57.26-8.35.14-1.17,0-2.32-.83-3.48-1.28h10.84c-3.61-1.68-7.23-.11-10.84,0-5,1.09-10,2-14.9,3.35-5.29,1.5-10.52,3.48-15.94,5.3,1.66,3.79,3.55,4.26,5.88,4.11a76.09,76.09,0,0,1,12.07.35,120.43,120.43,0,0,1,32,8.09A1.93,1.93,0,0,0,163,81.7C165.39,78.75,165.52,74.17,163.43,70.33Zm-23.88,9.22c-6.5-4.63-13.46-3.79-20.89-4.49l6.8,3.77v0c-2.76-1.07-5.5-2.21-8.27-3.17s-3.5-.35-4.5,2.73c8,5,15.31,11.32,20.07,23.21,10.1-3.74,20-7.86,28.42-18.41l-10.51-3.39.59,1.61c-2.09-.91-4.23-2-6.43-2.77s-4.54-1.22-6.82-1.81a3,3,0,0,0,.88,1.51,7,7,0,0,1,.61,1.23Zm-45.06,27v0c12.44.88,24.68-1.72,37.59-4.69-1.67-2.73-2.86-4.7-4.1-6.6-.07-.11-.5.35-.76.55l.05-.06c-.39-1.07-.62-2.49-1.2-3.16-6.4-7.33-12.71-15.28-21.55-10.85a3.62,3.62,0,0,0-2,2A37.62,37.62,0,0,1,94.29,100c-1.72,2.07-3.57,3.87-5.36,5.79l.12.84Zm-26-17.51h0c.65-.39,1.31-1.09,2-1.14,6.26-.43,12.17-3.22,18-6.45A10.87,10.87,0,0,0,90,80.12c-1.72-1.12-3.13-2.9-4.47-2.78C70.72,78.71,56.16,76,41.71,71.22c-3.15-1-4.67,0-6.2,4.4-1.43,4.12.15,8.54,3.11,8.6,2.55,0,5.09,0,7.63,0v.88H37.16c5.21,8.45,15.33,11.45,21.57,6.72H52v-.5l17.76-1.44,0-1.19Zm61.84,18.81-.05-.08a11.64,11.64,0,0,0-.56,2.6q.13,13.17.38,26.32a14.37,14.37,0,0,0,.34,2.05l.4-.08c.18-3.4.37-6.8.55-10.2l.54.07v9.66l.73.44a10.94,10.94,0,0,0,.77-2.83c0-8.66-.08-17.32-.16-26,0-1.13-.11-2.26-.17-3.39h1v31.19c1.71-1.59,2.15-25.23,1.24-33.41-25,7.53-50.11,7.17-75.23-.3l-.29,3.17c-.36-2.45-.46-5-2.8-3.46-.07,0-.22-.33-.35-.41L46.8,97.59c.37,9.62.69,18.46,1.11,27.3a8.13,8.13,0,0,0,1.1,2.58l.38-.47q-.42-11.34-.83-22.67a9.85,9.85,0,0,1,.78,3.79c.27,5.76.44,11.53.81,17.28a15.16,15.16,0,0,0,1.2,3.73l.57-.44L51,104.55l.57,0c.36,7.52.75,15,1,22.55.09,2.2.65,3.18,2.06,3.15-.32-7.35-.63-14.5-1-21.65a9,9,0,0,1,.78,3.68c.24,5.16.41,10.33.68,15.48.09,1.66,0,3.86,2,3.45l-.52-13.6a65.47,65.47,0,0,1,.93,10.93c.05,3.07.89,4.67,3.15,4.5l-.26-5.65v0c.23,1.3.38,2.64.71,3.88.25,1,.59,2.35,1.11,2.63a15,15,0,0,0,4.5,1.51c11.45,2,22.9,4,34.37,5.74,3.58.54,7.22.09,10.84.09l.17-3.38.28,0,.45,3.61,5.73-.48.2-5.7.47,0v5.39l2.35-.28V114.37h.56v26.22l7.08-1.39v-30l-7.3,1.45h0Zm-28.88-46.6.28,0q.27,8.21.55,16.39l.09,0V57l-4.85-.67V74.21c0,5.29.46,5.79,3.93,4.29ZM40.35,98.22c.66,8.33,1.31,16.41,1.95,24.5l.78-.15Q42.5,112,41.93,101.33l.57-.06c.27,4,.47,8.12.8,12.15.83,10,.85,10,1.69,10.73-.27-6.08-.73-12.27-.73-18.46C44.25,101.59,43.36,99.23,40.35,98.22Zm96,38.57.63.5a7.81,7.81,0,0,0,.85-2.44q.09-14.44,0-28.87a8.46,8.46,0,0,0-.7-2.25,7,7,0,0,0-.77,2.12C136.36,116.16,136.38,126.48,136.38,136.79Zm-90-10.9.8-.06c0-.81,0-1.63,0-2.45-.18-8.13-.34-16.25-.61-24.37,0-.87-.79-1.68-1.2-2.51A143.88,143.88,0,0,0,46.33,125.89Zm100.6-26.77c-.71.34-1.38.51-1.38.69-.05,11,0,22,0,33.05l.94,0C147.22,121.87,146.78,110.75,146.93,99.12Zm-2.59,1.44h-.74v33.36h.74ZM111.88,75.63c-1.69-3.52-4.07-4.76-7.41-4,.11,2.2.21,4.41.32,6.62l.51,0,.24-3.6.68,3.67Zm-75,41.48.81-.21c0-.1.12-.21.11-.31-.65-9-2-17.91-1-27.07a7.1,7.1,0,0,0-.5-2.2l-1.12,1Q36,102.73,36.91,117.11Zm2.63-20.74-1,.19,2,24.47.73-.14ZM37.73,90.5l-.85.08,1.8,28.16.46-.08Zm104.48,22.87c1.12-8.81,1-10.43-.73-11.85C141.74,105.67,142,109.52,142.21,113.37Zm21.35-4.75c-.12,1.87-.34,5.39-.56,8.92l.56,0Zm-16,15.49,1,.68c.22-1.73.43-3.46.65-5.18l-.9-.36ZM102,54v-.84H98.1V54Zm45.71,45.24.55,1.06,1.35-1.72-.52-1ZM98.31,149l-.26,1.18,2,1,.26-1.2Zm52.12-46.5.86.49c.16-.85.32-1.7.49-2.56L151,100C150.8,100.86,150.61,101.67,150.43,102.49Zm1.56,5.42-.85-.6-.7,2.69.7.5Zm-1.65-9.51.79.79.84-2.51-.63-.56Zm-54.5-23v-.87l-2.34.25v.62ZM152,111.61l-.79-.62-.72,2.43.62.51ZM39.5,91.65l-.84.29L39.23,95l.67-.26Zm112.44,12.51-.93-.41c-.14.9-.29,1.79-.44,2.68l.73.35Zm-.37,17.49-.77-.68-.68,2.25.64.52Zm-3.59-18,.43.68c.32-.27.78-.42.93-.84a6.26,6.26,0,0,0,0-1.75l-.46-.24Zm3.68,15.23L151,118l-.82,1.9.54.62Zm1-21.49.67.39.6-2.35-.72-.42Zm-.32,28.4.64.29.52-2.41-.71-.32Zm4.33-32,.83.61.61-2.43-.61-.41Zm-.6.41-.66-.81-.84,2,.51.58Zm5.17,24.66h.25l.19-2.82-.31,0Zm-10.9-2.17.62.52.75-2.07-.66-.55Zm-1.75-1a6,6,0,0,0-.65,1.61c0,.27.43.6.67.9a5.8,5.8,0,0,0,.51-1.33C149.18,116.6,148.88,116.23,148.61,115.67Zm17-33.6-.47,0-.06,2h.53ZM152.9,112.23h.68v-2.31l-.49,0Zm0-3.76.66.11.15-2-.48-.15Zm.87-9.14-.63-.11c0,.68-.11,1.36-.12,2,0,.08.23.16.61.4Zm1.79,23.11-.42-.19-.36,1.6.47.24Zm1.5-13.4.39.15.34-1.82-.44-.18Zm-4.33,9.43.5.5.4-1.81-.38-.25Zm12.46-4.57-.39-.18-.27,1.73.28.13Zm-11.49-.24-.54-.18c-.1.71-.2,1.41-.29,2.12l.54.18Zm8.45-24.87-.32-.8-1,1.28.24.49Zm-8.29,14.67-.51-.48c-.14.55-.29,1.09-.4,1.66a3.89,3.89,0,0,0,.56.35Zm3.07,9.05.54.32.36-2-.48-.22Zm1.1-16-.43-.89a4.22,4.22,0,0,0-.59.84,1.45,1.45,0,0,0,.28.7A3.73,3.73,0,0,0,158,96.5Zm-2.28,19.88c-.25-.12-.42-.28-.57-.24s-.25.41-.22.52a2.77,2.77,0,0,0,.38.65Zm-1,3.64.53.42.26-1.61-.35-.18ZM157,105.19l.36.28.44-1.3c-.13-.08-.37-.26-.38-.23C157.29,104.34,157.17,104.77,157,105.19Zm.71,9.69-.2-.61c-.16.16-.38.27-.47.5s.13.46.21.7Zm-2.61-4.29.36.13.3-1.46-.58-.13Zm2.73-10-.32-.21-.47,1.3.51.31ZM155,103.39l.35.26.46-1.3-.54-.42Zm0,10.69.52.11.14-1.54c-.19,0-.54-.08-.55,0C155.07,113.09,155.06,113.59,155,114.08Zm4.77-23.71-.39-.14-.27,1.69.42.16Zm-4.62,16.75h.42l.06-1.74h-.48ZM159,95.51l.41.15.22-1.52L159.3,94Zm2.73,8.72c-.11.12-.27.2-.31.35a1.74,1.74,0,0,0,.07.57c.11-.11.27-.19.31-.34A1.82,1.82,0,0,0,161.77,104.23Zm-2.53,11a3.56,3.56,0,0,0-.34,1c0,.18.21.37.32.56a2.55,2.55,0,0,0,.35-.77C159.6,115.86,159.4,115.62,159.24,115.26ZM157.62,117l-.42-.1-.14,1.6.37.08Zm-4.37,3.17c-.22.38-.42.58-.44.81s.16.47.26.71a1.86,1.86,0,0,0,.44-.6A3.2,3.2,0,0,0,153.25,120.14Zm.21,7.6c-.28-.31-.46-.63-.56-.58a1,1,0,0,0-.47.64c0,.2.14.52.23.78ZM97.28,145.08a2.78,2.78,0,0,0-.19.52.8.8,0,0,0,0,.34c.08-.06.24-.11.24-.17A6.67,6.67,0,0,0,97.28,145.08Zm1.15,1.24.3-.09-.09-1.11-.21,0Zm3,4.82c.14-.1.31-.15.38-.3a1.71,1.71,0,0,0,0-.57l-.51.29Zm-5.59-79a3.35,3.35,0,0,0-.2-.66,2,2,0,0,0-.55.28c.06.21.11.59.18.59S95.66,72.22,95.86,72.13Zm-2.8,0a4.62,4.62,0,0,0-.21.79c0,.07.27.31.29.28a5.37,5.37,0,0,0,.36-.72Zm2,5-.08.43.68.52.17-.78Zm69.05,14.68c.05.42,0,.21,0,0Zm.93,14.71h.2l.05-1.49-.25,0Zm-9.85,19.85-.1-.61c-.12.06-.34.13-.33.19a5.1,5.1,0,0,0,.11.77Zm8.4-39.61-.25-.54c-.08.18-.23.35-.23.52s.14.35.22.53Zm-6.43,37.47c-.11.13-.26.21-.32.38a1.79,1.79,0,0,0,.06.53c.12-.11.28-.17.34-.33A1.94,1.94,0,0,0,157.18,124.24Zm4.54-11.16-.28-.38a2.12,2.12,0,0,0-.09.31,1.28,1.28,0,0,0,.06.33Zm-2.44-13.83c-.07,0-.17,0-.18.09s0,.36,0,.54c.06,0,.16-.06.17-.1A4.64,4.64,0,0,0,159.28,99.25Zm-2.36,22.81.43.28.08-1.66-.29-.06Zm8.46-12.79-.43-.09.11,1.3h.24ZM162,91.45l-.33,0,.14,1c.05,0,.14,0,.15-.07C162,92.14,162,91.8,162,91.45Zm-.25,9.84h.19v-1.1h-.19Zm3.23.44.31.14v-1.15l-.18,0ZM97.28,149c-.09.17-.24.33-.24.5a1.37,1.37,0,0,0,.19.52c.09-.16.24-.31.25-.48A1.79,1.79,0,0,0,97.28,149Zm62-26.11a1.31,1.31,0,0,0-.08-.27,1.75,1.75,0,0,0-.35.2c0,.09.07.27.09.26A1.63,1.63,0,0,0,159.24,122.93Zm6.27-36.12-.18-.17,0,.28ZM100,145.38l-.26-.14,0,.24ZM161.86,97c-.05.19-.12.37-.15.56s.09.15.14.22a3.29,3.29,0,0,0,.14-.54C162,97.19,161.91,97.1,161.86,97ZM93.94,77v.54c0-.08.11-.16.11-.24A.93.93,0,0,0,93.94,77Zm66.52,24.46a1.28,1.28,0,0,0-.05.27s.08.06.12.09a.82.82,0,0,0,0-.26S160.5,101.48,160.46,101.44Zm-1.16,1.7-.16-.54c0,.07-.15.14-.15.21a3.9,3.9,0,0,0,0,.58ZM91.78,73.19l-.13-.54c-.06,0-.17.12-.17.16a4.19,4.19,0,0,0,.11.51Zm67.46,33.55-.11-.3c0,.09-.15.2-.14.24a1.73,1.73,0,0,0,.18.36Zm2.67,2.89-.07-.24-.07.24Zm-2.81,1.14a4.65,4.65,0,0,0,.15-.59c0-.06-.09-.15-.14-.23a4,4,0,0,0-.14.57C159,110.59,159.05,110.68,159.1,110.77Zm-.15,2.87.18.22a5.54,5.54,0,0,0,.17-.58s-.11-.15-.17-.22ZM94.42,72.15c0,.07-.14.14-.14.21s.07.16.12.24.13-.14.14-.21S94.46,72.23,94.42,72.15Z" transform="translate(-32.03 -34.81)"/><path class="cls-1" d="M49.09,49.71A55.37,55.37,0,0,1,55,46a100.77,100.77,0,0,1,30-8.77l-1-2.46,9.49,2.3,0,.63-8.67,3.62.11-1c-.56-.29-1.14-.92-1.66-.81-6,1.24-12,2.25-17.91,4-5.46,1.61-10.81,4-16.21,6.11Z" transform="translate(-32.03 -34.81)"/><path class="cls-1" d="M159,140.23a20.18,20.18,0,0,1-2.72,3.39,88.32,88.32,0,0,1-34.53,17.21c-2.88.68-5.78,1.25-8.84,1.9l.9,2.46-9.6-2,0-.73,9-4.71-.35,2.4a12.31,12.31,0,0,0,2.19,0,98,98,0,0,0,41.66-17.65,28.47,28.47,0,0,0,2.37-2.2Z" transform="translate(-32.03 -34.81)"/><path class="cls-1" d="M116.12,115.45v22.93l-.25,0V115.52Z" transform="translate(-32.03 -34.81)"/><path class="cls-1" d="M125.43,113.78v24.41l-.14,0V113.79Z" transform="translate(-32.03 -34.81)"/><path class="cls-1" d="M130.31,107.89l1.72-.76v19.71c-.21-6-.31-10.89-.6-15.78a11.57,11.57,0,0,0-1.16-3.24Z" transform="translate(-32.03 -34.81)"/><path class="cls-1" d="M106.67,112.69h-11l11-.81Z" transform="translate(-32.03 -34.81)"/><path class="cls-1" d="M127.81,137.52V117.78h.27v19.73Z" transform="translate(-32.03 -34.81)"/><path class="cls-1" d="M66.81,125.32c-.12-3.45-.25-6.89-.37-10.33l.52,0v10.52Z" transform="translate(-32.03 -34.81)"/><ellipse class="cls-1" cx="86.95" cy="87.12" rx="0.19" ry="10.21"/><path class="cls-1" d="M69.43,119.58,70,129l-.32.05-.6-9.45Z" transform="translate(-32.03 -34.81)"/><path class="cls-1" d="M90.93,132l-.59-8,.42-.07c.17,2.66.33,5.31.5,8Z" transform="translate(-32.03 -34.81)"/><path class="cls-1" d="M63.78,117.44l-.17-4,.46,0v4Z" transform="translate(-32.03 -34.81)"/><path class="cls-1" d="M112.94,126.94v-7.41h.21v7.37Z" transform="translate(-32.03 -34.81)"/><path class="cls-1" d="M126.42,113.54v2.87l-.23,0v-2.87Z" transform="translate(-32.03 -34.81)"/><path class="cls-1" d="M108.3,138.74v-6.23h.19v6.23Z" transform="translate(-32.03 -34.81)"/><path class="cls-1" d="M110.13,119.72v-4.56h.17v4.89Z" transform="translate(-32.03 -34.81)"/><path class="cls-1" d="M93.36,135.43v-3.88h.22l.13,4Z" transform="translate(-32.03 -34.81)"/><path class="cls-1" d="M88.23,130.65v-3.78l.24,0,.11,3.64Z" transform="translate(-32.03 -34.81)"/><path class="cls-1" d="M78.19,110.66l3,.57-.07.63-2.88-1.2Z" transform="translate(-32.03 -34.81)"/><path class="cls-1" d="M105.38,136.62l-.07,2.19h-.26v-2.28Z" transform="translate(-32.03 -34.81)"/><path class="cls-1" d="M60.44,127.35l-.07-2.63h.25l-.18,2.65Z" transform="translate(-32.03 -34.81)"/><path class="cls-1" d="M78.21,110.66l-1.33.31v-.38l1.31.08Z" transform="translate(-32.03 -34.81)"/><path class="cls-1" d="M122,110.65h0c-.46-.13-.24-.07,0,0Z" transform="translate(-32.03 -34.81)"/><path class="cls-1" d="M49.69,87.56H40.47V87h9.21Z" transform="translate(-32.03 -34.81)"/><path class="cls-1" d="M56.77,89.4l-11.11.88,0-.7,11.12-.92Z" transform="translate(-32.03 -34.81)"/><path class="cls-1" d="M43.08,79.76H37.36V79.5H43.3Z" transform="translate(-32.03 -34.81)"/><path class="cls-1" d="M38.8,76.24l5.09.83,0,.74-5.07-1Z" transform="translate(-32.03 -34.81)"/><path class="cls-1" d="M69.7,85l-4.37.9-.06-.67,4.37-.9Z" transform="translate(-32.03 -34.81)"/><path class="cls-1" d="M58,82.07l3.19-.49.05.66-3.2.52Z" transform="translate(-32.03 -34.81)"/><path class="cls-1" d="M39.88,81.86H36.83v-.42H40Z" transform="translate(-32.03 -34.81)"/><path class="cls-1" d="M75.81,81.67c.79-.27,1.58-.54,2.37-.79.06,0,.13.12.4.4l-2.61,1Z" transform="translate(-32.03 -34.81)"/><path class="cls-1" d="M60,83.75h1.52v.35l-1.47.11Z" transform="translate(-32.03 -34.81)"/><path class="cls-1" d="M41.33,74.77l-1.28-.13v-.15h1.28Z" transform="translate(-32.03 -34.81)"/><path class="cls-1" d="M51.47,80.45H50.19l0-.34,1.34-.28Z" transform="translate(-32.03 -34.81)"/><path class="cls-1" d="M77.5,83.17l-1,1.19-.19-.4,1.2-.79Z" transform="translate(-32.03 -34.81)"/><path class="cls-1" d="M77.51,83.17l2.31-.78h0l-2.31.79Z" transform="translate(-32.03 -34.81)"/><path class="cls-1" d="M81.83,81.81l-2,.57h0l2.06-.52Z" transform="translate(-32.03 -34.81)"/><path class="cls-1" d="M68.47,89.08H67.11v-.32l1.36.32Z" transform="translate(-32.03 -34.81)"/><path class="cls-1" d="M84.72,80.65l-.87,1.17h0l.92-1.23Z" transform="translate(-32.03 -34.81)"/><path class="cls-1" d="M43.48,75.22c0,.07-.07.19-.09.18a3.82,3.82,0,0,1-.36-.13c0-.07.06-.19.09-.18A1.74,1.74,0,0,1,43.48,75.22Z" transform="translate(-32.03 -34.81)"/><path class="cls-1" d="M81.88,81.87l2,0h0c-.67,0-1.34,0-2,0Z" transform="translate(-32.03 -34.81)"/><polygon class="cls-1" points="52.75 45.77 52.86 45.75 52.7 45.84 52.75 45.77"/><path class="cls-1" d="M108.75,90.46l-.69-7.26.48-.11.66,7.27Z" transform="translate(-32.03 -34.81)"/><path class="cls-1" d="M115.83,86.06c.43,2.46.85,4.93,1.28,7.39l-.69.21-.56-7.54Z" transform="translate(-32.03 -34.81)"/><path class="cls-1" d="M106.08,90.3l.42-5.19.63.17-1,5Z" transform="translate(-32.03 -34.81)"/><path class="cls-1" d="M124.87,94.87,126,101.3l-.65.16L125,94.93Z" transform="translate(-32.03 -34.81)"/><path class="cls-1" d="M96.25,101.47c-.6,1.69-1.19,3.37-1.78,5.07,0,0,0,0,0,0,.58-1.72,1.15-3.45,1.73-5.18Z" transform="translate(-32.03 -34.81)"/><path class="cls-1" d="M122.68,101.39V96.26h.3v5.15Z" transform="translate(-32.03 -34.81)"/><path class="cls-1" d="M127.21,95.82l1,4.41-.43.19c-.18-1.55-.36-3.11-.53-4.66Z" transform="translate(-32.03 -34.81)"/><path class="cls-1" d="M117.24,98.11l-.29,3.14-.31-.07.38-3.12Z" transform="translate(-32.03 -34.81)"/><path class="cls-1" d="M119.24,99.23v3.48H119V99.26Z" transform="translate(-32.03 -34.81)"/><path class="cls-1" d="M99.31,102.47,98.08,105l-.21-.3,1.43-2.12Z" transform="translate(-32.03 -34.81)"/><path class="cls-1" d="M102.09,103.08l1-2.12,0-.07-.93,2.16Z" transform="translate(-32.03 -34.81)"/><path class="cls-1" d="M100.89,104.28l1.2-1.2,0,0c-.38.38-.76.75-1.13,1.13Z" transform="translate(-32.03 -34.81)"/><path class="cls-1" d="M109.12,101l-.24,1.11-.57-.82.86-.2Z" transform="translate(-32.03 -34.81)"/><path class="cls-1" d="M113.39,101.7l0-.85.13,0c0,.29,0,.57,0,.85Z" transform="translate(-32.03 -34.81)"/><path class="cls-1" d="M109.17,101.12c0-.42,0-.84,0-.31.13-.52,0-.15,0,.22Z" transform="translate(-32.03 -34.81)"/><path class="cls-1" d="M106.11,90.28v.29c0,.08,0-.09,0-.26Z" transform="translate(-32.03 -34.81)"/><path class="cls-1" d="M98.68,98.9v-.39l-.16.1.13.33Z" transform="translate(-32.03 -34.81)"/><path class="cls-1" d="M103.05,101l.1-.9.25.29-.4.54Z" transform="translate(-32.03 -34.81)"/><path class="cls-1" d="M111.15,101.84l-.05.1c-.31.31-.16.15,0,0Z" transform="translate(-32.03 -34.81)"/><path class="cls-1" d="M111.1,101.94v-.23l.06.13Z" transform="translate(-32.03 -34.81)"/><path class="cls-1" d="M100.28,100.81l.62-.58v-.15l-.68.64Z" transform="translate(-32.03 -34.81)"/><path class="cls-1" d="M98.09,99.58c.2-.22.39-.45.58-.68,0,0,0,0,0,0-.2.19-.41.39-.63.58Z" transform="translate(-32.03 -34.81)"/><path class="cls-1" d="M99.3,102.58l.12-1.17v0c0,.35-.08.69-.11,1Z" transform="translate(-32.03 -34.81)"/><path class="cls-1" d="M100.9,100.23l-.11-.22.12.07Z" transform="translate(-32.03 -34.81)"/><path class="cls-1" d="M115.86,86.12l-.13-.06h.1Z" transform="translate(-32.03 -34.81)"/><path class="cls-1" d="M125,94.93l-.1.14a1.36,1.36,0,0,0,0-.2Z" transform="translate(-32.03 -34.81)"/><path class="cls-1" d="M96.82,100.44l.46-.35-.07-.06-.35.44Z" transform="translate(-32.03 -34.81)"/><path class="cls-1" d="M97.28,100.09l.81-.51L98,99.52q-.41.27-.81.51S97.28,100.09,97.28,100.09Z" transform="translate(-32.03 -34.81)"/><path class="cls-1" d="M96.86,100.47l-.61,1a.64.64,0,0,0,0-.07l.6-1S96.86,100.47,96.86,100.47Z" transform="translate(-32.03 -34.81)"/><path class="cls-1" d="M100.23,100.72l-.81.71v0l.86-.6Z" transform="translate(-32.03 -34.81)"/><path class="cls-1" d="M100.94,104.18l0,.28c0-.06,0-.13-.08-.19Z" transform="translate(-32.03 -34.81)"/><path class="cls-1" d="M142.86,83l1.14.82-.12.46-1.27-.76Z" transform="translate(-32.03 -34.81)"/><path class="cls-1" d="M134.2,96l.91,1.17-.18.34-1-1.15Z" transform="translate(-32.03 -34.81)"/><path class="cls-1" d="M125.79,81.33l-2-1.83,0,0,1.92,1.88Z" transform="translate(-32.03 -34.81)"/><path class="cls-1" d="M148.8,91.11l-1.24-2v0l1.24,2.06Z" transform="translate(-32.03 -34.81)"/><path class="cls-1" d="M118.26,79.13l1.21.18,0,.5-1.21-.13Z" transform="translate(-32.03 -34.81)"/><path class="cls-1" d="M140.34,92l-1.13-1.49.35-.51.78,2Z" transform="translate(-32.03 -34.81)"/><path class="cls-1" d="M138.37,93.7l1.19,1-.29.51-.86-1.56Z" transform="translate(-32.03 -34.81)"/><path class="cls-1" d="M132.79,91.59l1.44,1.31.05-.07-1.44-1.33Z" transform="translate(-32.03 -34.81)"/><path class="cls-1" d="M144.69,91l.62,1.44-.29.22-.3-1.62Z" transform="translate(-32.03 -34.81)"/><path class="cls-1" d="M137,92.29l1.39,1.41,0-.07c-.46-.47-.91-.95-1.37-1.43Z" transform="translate(-32.03 -34.81)"/><path class="cls-1" d="M141.77,92.09l1,2.14v-.06c-.31-.72-.62-1.44-.94-2.16Z" transform="translate(-32.03 -34.81)"/><path class="cls-1" d="M134.39,94.06l1.08.13,0,.43c-.34-.19-.67-.38-1-.59C134.44,94,134.39,94.06,134.39,94.06Z" transform="translate(-32.03 -34.81)"/><path class="cls-1" d="M147.56,89.08l-.26,0,.25,0S147.56,89.08,147.56,89.08Z" transform="translate(-32.03 -34.81)"/><path class="cls-1" d="M123.84,79.5l-1.74-.22-.06.11c.58.06,1.16.13,1.75.18Z" transform="translate(-32.03 -34.81)"/><path class="cls-1" d="M125.46,78.83l1-.07v.09h-.94Z" transform="translate(-32.03 -34.81)"/><path class="cls-1" d="M133.67,87.37l.13.2-.06-.31Z" transform="translate(-32.03 -34.81)"/><path class="cls-1" d="M131.25,89.77l.36,1.35,0-.06-.39-1.24Z" transform="translate(-32.03 -34.81)"/><path class="cls-1" d="M131.61,91.12l1.18.47.05-.09L131.67,91Z" transform="translate(-32.03 -34.81)"/><path class="cls-1" d="M133.74,87.26c-.12-.14-.24-.28-.12-.13-.05-.22,0,0,.06.23Z" transform="translate(-32.03 -34.81)"/><path class="cls-1" d="M140.34,92c.47,0,.94.1,1.42.13l.08-.09-1.5,0Z" transform="translate(-32.03 -34.81)"/><path class="cls-1" d="M126.67,82.28l-.87-1-.07.1.88.77Z" transform="translate(-32.03 -34.81)"/><path class="cls-1" d="M139.51,79.6l.16-.06c.29.06.1,0-.11,0Z" transform="translate(-32.03 -34.81)"/><path class="cls-1" d="M131.27,89.82l-.41,0,.39-.07Z" transform="translate(-32.03 -34.81)"/><path class="cls-1" d="M122.1,79.28l-.42-.25.22-.26c0,.21.09.41.14.62Z" transform="translate(-32.03 -34.81)"/><path class="cls-1" d="M142.77,94.23l.12-.1c.31,0,.11,0-.1,0A.45.45,0,0,0,142.77,94.23Z" transform="translate(-32.03 -34.81)"/><path class="cls-1" d="M144.72,91l-.15,0,.12-.06Z" transform="translate(-32.03 -34.81)"/><path class="cls-1" d="M137,92.2l-.25-.26s.11,0,.13,0a1.45,1.45,0,0,1,.06.3Z" transform="translate(-32.03 -34.81)"/><path class="cls-1" d="M126.61,82.2l.11.09,0,0S126.61,82.2,126.61,82.2Z" transform="translate(-32.03 -34.81)"/><path class="cls-1" d="M134.23,92.9c.06.38.12.76.17,1.15,0,0,0,0,0,0-.06-.39-.1-.79-.15-1.2Z" transform="translate(-32.03 -34.81)"/><path class="cls-1" d="M114.54,70.15a40.6,40.6,0,0,1,5.77-2.55,18.46,18.46,0,0,1,6.2-.33l-12,2.92Z" transform="translate(-32.03 -34.81)"/><path class="cls-1" d="M138.86,69.29h9.88v.39h-9.88Z" transform="translate(-32.03 -34.81)"/><path class="cls-1" d="M116.37,70.64h4.25V71h-4.2Z" transform="translate(-32.03 -34.81)"/><path class="cls-1" d="M147.11,66.26l2.12.59,0,.61L147,67Z" transform="translate(-32.03 -34.81)"/><polygon class="cls-1" points="98.28 33.28 98.19 33.18 98.38 33.17 98.28 33.28"/><path class="cls-1" d="M114.53,70.19h-.87v0h.88Z" transform="translate(-32.03 -34.81)"/><path class="cls-1" d="M73.8,95.32l-6.91,3,0,.07,6.86-2.92Z" transform="translate(-32.03 -34.81)"/><path class="cls-1" d="M92.31,86.45,88.12,90l0,.08,4.15-3.66Z" transform="translate(-32.03 -34.81)"/><path class="cls-1" d="M66.89,98.27,62,99.6,62,98.89l5-.56S66.89,98.27,66.89,98.27Z" transform="translate(-32.03 -34.81)"/><path class="cls-1" d="M83.35,101.44l-3.08,2.43,0,.07,3.08-2.43Z" transform="translate(-32.03 -34.81)"/><path class="cls-1" d="M86.7,99.41l-3.35,2,0,.07,3.35-2Z" transform="translate(-32.03 -34.81)"/><path class="cls-1" d="M83.14,97.68l-2.46,2.48,0,.07,2.45-2.6Z" transform="translate(-32.03 -34.81)"/><path class="cls-1" d="M80.68,100.16l-2.23,1.62s0,.08,0,.08l2.22-1.63Z" transform="translate(-32.03 -34.81)"/><path class="cls-1" d="M85.59,89l2-1.82-.05-.09-2,1.85Z" transform="translate(-32.03 -34.81)"/><path class="cls-1" d="M93.48,89.68l1.64-2.48,0,0c-.55.83-1.09,1.66-1.65,2.48Z" transform="translate(-32.03 -34.81)"/><path class="cls-1" d="M88.12,90l-2.41,1.27.06.1,2.39-1.29Z" transform="translate(-32.03 -34.81)"/><path class="cls-1" d="M76.41,97.05l1.75-2.17-.06-.06-1.7,2.23Z" transform="translate(-32.03 -34.81)"/><path class="cls-1" d="M60,97l1.13-1.38.22.62L60,96.91Z" transform="translate(-32.03 -34.81)"/><path class="cls-1" d="M92.31,86.46l1.62-1.07,0-.07-1.58,1.13Z" transform="translate(-32.03 -34.81)"/><path class="cls-1" d="M60,96.91l-1.43.28v-.63L60,97Z" transform="translate(-32.03 -34.81)"/><path class="cls-1" d="M71.67,98.56l-.86.9L70.67,99l1.06-.39Z" transform="translate(-32.03 -34.81)"/><path class="cls-1" d="M72.91,97.58l-1.23,1,0,.07q.58-.52,1.2-1Z" transform="translate(-32.03 -34.81)"/><path class="cls-1" d="M77.09,102.54l1.4-.69s0-.07,0-.07c-.47.24-.94.46-1.41.68Z" transform="translate(-32.03 -34.81)"/><path class="cls-1" d="M95.59,86.48,96.51,85l0-.08c-.31.49-.61,1-.92,1.46Z" transform="translate(-32.03 -34.81)"/><path class="cls-1" d="M76.4,97.05l-1.4.71h0l1.4-.71Z" transform="translate(-32.03 -34.81)"/><path class="cls-1" d="M85.54,88.92l-1.25.77h0L85.58,89Z" transform="translate(-32.03 -34.81)"/><path class="cls-1" d="M75.93,103.35l1.15-.82,0-.07-1.12.9Z" transform="translate(-32.03 -34.81)"/><path class="cls-1" d="M75,97.76l-2.08-.16v0l2.07.14Z" transform="translate(-32.03 -34.81)"/><path class="cls-1" d="M84.29,89.69h-1v-.2l1,.19Z" transform="translate(-32.03 -34.81)"/><path class="cls-1" d="M85.71,91.31c-.08.23-.15.46-.23.68,0,0-.11-.08-.17-.12.15-.15.31-.3.46-.46Z" transform="translate(-32.03 -34.81)"/><path class="cls-1" d="M87.62,87.16,88.25,86v0l-.67,1.13Z" transform="translate(-32.03 -34.81)"/><path class="cls-1" d="M92.07,89.7q.69,0,1.41,0s0-.06,0,0l-1.33,0Z" transform="translate(-32.03 -34.81)"/><path class="cls-1" d="M78.16,94.88c.18-.07.37-.14,0,0,.31.06.12,0-.09,0Z" transform="translate(-32.03 -34.81)"/><path class="cls-1" d="M88.25,86l1-.83v0l-1,.84S88.25,86,88.25,86Z" transform="translate(-32.03 -34.81)"/><path class="cls-1" d="M90.68,95.62l.32.14,0-.59-.25.37Z" transform="translate(-32.03 -34.81)"/><path class="cls-1" d="M89.21,85.16l.8.13-.06.32-.74-.47Z" transform="translate(-32.03 -34.81)"/><path class="cls-1" d="M57.21,97.67c-.14,0-.2.1-.27.09s0-.13,0-.21Z" transform="translate(-32.03 -34.81)"/><path class="cls-1" d="M83.16,97.63l.36.09-.38,0Z" transform="translate(-32.03 -34.81)"/><path class="cls-1" d="M89.73,97.21l-1,1,.05.09.92-1Z" transform="translate(-32.03 -34.81)"/><path class="cls-1" d="M88.71,98.21l-1,.53,0,.07,1.06-.52Z" transform="translate(-32.03 -34.81)"/><path class="cls-1" d="M86.74,99.48l1-.67,0-.07-1,.67Z" transform="translate(-32.03 -34.81)"/><path class="cls-1" d="M75.92,103.36l-1.41.32,0,.06,1.37-.39Z" transform="translate(-32.03 -34.81)"/><path class="cls-1" d="M79.25,104.47c.35-.18.7-.36,1.06-.53l0-.07-1.07.52Z" transform="translate(-32.03 -34.81)"/><path class="cls-1" d="M95.12,87.2l.47-.72,0-.06c-.15.25-.31.49-.46.73Z" transform="translate(-32.03 -34.81)"/><path class="cls-1" d="M94.22,84.3l-.07-.1Z" transform="translate(-32.03 -34.81)"/><path class="cls-1" d="M97.1,84.49l0-.16L97,84.4A.7.7,0,0,1,97.1,84.49Z" transform="translate(-32.03 -34.81)"/><path class="cls-1" d="M93.93,85.39c.1-.36.19-.73.29-1.09l-.07-.1q-.14.54-.27,1.11Z" transform="translate(-32.03 -34.81)"/><path class="cls-1" d="M90.72,95.54l0,.28a1.18,1.18,0,0,0-.07-.2Z" transform="translate(-32.03 -34.81)"/><path class="cls-1" d="M96.51,85l.59-.56S97,84.39,97,84.4l-.57.56Z" transform="translate(-32.03 -34.81)"/><path class="cls-1" d="M92.11,89.65l0,0Z" transform="translate(-32.03 -34.81)"/><path class="cls-1" d="M73.8,95.42l-.06-.26a1.21,1.21,0,0,0,.05.14A.57.57,0,0,1,73.8,95.42Z" transform="translate(-32.03 -34.81)"/><path class="cls-1" d="M89.68,97.32l0-.23.08.13A.93.93,0,0,0,89.68,97.32Z" transform="translate(-32.03 -34.81)"/><path class="cls-1" d="M47.44,64.62l7.8,4.14,0,.1-7.85-4.25Z" transform="translate(-32.03 -34.81)"/><path class="cls-1" d="M77.34,72.27l4.43,1.57-.14.7-4.28-2.27Z" transform="translate(-32.03 -34.81)"/><path class="cls-1" d="M71,73.31l3.36.92-.15.85-3.16-1.86Z" transform="translate(-32.03 -34.81)"/><path class="cls-1" d="M51.8,62.68l3.46,2-.06-.11-3.36-1.94Z" transform="translate(-32.03 -34.81)"/><path class="cls-1" d="M52.8,70.59l-2.42-1.53Z" transform="translate(-32.03 -34.81)"/><path class="cls-1" d="M58.13,59.4l1.71.9.07-.09-1.83-.91Z" transform="translate(-32.03 -34.81)"/><path class="cls-1" d="M55.47,61.19l-1.41-1.35L54,60l1.42,1.33Z" transform="translate(-32.03 -34.81)"/><path class="cls-1" d="M77.35,72.27l-1.41.36,0-.36h1.43Z" transform="translate(-32.03 -34.81)"/><path class="cls-1" d="M69.17,72.56l1.83.75a.73.73,0,0,0,0-.09c-.6-.25-1.21-.5-1.83-.74Z" transform="translate(-32.03 -34.81)"/><path class="cls-1" d="M46.76,67l-1.5-.8Z" transform="translate(-32.03 -34.81)"/><path class="cls-1" d="M49.08,68.44l-1.5-.81Z" transform="translate(-32.03 -34.81)"/><path class="cls-1" d="M71.76,67.87,73,68.7l.06-.09-1.25-.85Z" transform="translate(-32.03 -34.81)"/><path class="cls-1" d="M50.49,69.16,49,68.35Z" transform="translate(-32.03 -34.81)"/><path class="cls-1" d="M74.45,69.31l-1.37-.71-.07.1,1.38.68Z" transform="translate(-32.03 -34.81)"/><path class="cls-1" d="M74.39,69.38l1.26,1v0c-.39-.35-.79-.7-1.2-1Z" transform="translate(-32.03 -34.81)"/><path class="cls-1" d="M75.65,70.37l1.13-.48,0,.41c-.38,0-.76,0-1.14,0A.15.15,0,0,0,75.65,70.37Z" transform="translate(-32.03 -34.81)"/><path class="cls-1" d="M66.12,71.43l1.25.95,0-.06-1.34-1Z" transform="translate(-32.03 -34.81)"/><path class="cls-1" d="M74.13,71.6c0,.06,0,.16-.09.18s-.14,0-.2,0,0-.23.1-.27S74.06,71.57,74.13,71.6Z" transform="translate(-32.03 -34.81)"/><path class="cls-1" d="M67.37,72.38l1.79.19.06-.09q-.89-.11-1.8-.18Z" transform="translate(-32.03 -34.81)"/><path class="cls-1" d="M62.72,68.05l.11-.45-.36.09c0,.09,0,.22,0,.26s.12,0,.19,0Z" transform="translate(-32.03 -34.81)"/><path class="cls-1" d="M47.68,67.72l-1-.82Z" transform="translate(-32.03 -34.81)"/><path class="cls-1" d="M70.84,67l-.22-.28.16.38Z" transform="translate(-32.03 -34.81)"/><path class="cls-1" d="M63.31,57.11,63,57v.28l.27-.17Z" transform="translate(-32.03 -34.81)"/><path class="cls-1" d="M62.8,59.3c-.2.05-.41.1-.14,0-.29,0-.09,0,.1,0Z" transform="translate(-32.03 -34.81)"/><path class="cls-1" d="M63.63,59.43l1.35.06,0-.09-1.37,0Z" transform="translate(-32.03 -34.81)"/><path class="cls-1" d="M50.59,62.34l1.21.34,0-.07c-.4-.12-.8-.24-1.21-.34Z" transform="translate(-32.03 -34.81)"/><path class="cls-1" d="M61.3,61.43l-1.36.12,0,0,1.44-.11Z" transform="translate(-32.03 -34.81)"/><path class="cls-1" d="M63.8,61.3l-1.09-.43h0l1,.37Z" transform="translate(-32.03 -34.81)"/><path class="cls-1" d="M54.19,72.06l-1-.81Z" transform="translate(-32.03 -34.81)"/><path class="cls-1" d="M55.24,68.76h.33l-.29.1A.79.79,0,0,1,55.24,68.76Z" transform="translate(-32.03 -34.81)"/><path class="cls-1" d="M62.7,68l.3.18,0-.46-.24.36Z" transform="translate(-32.03 -34.81)"/><path class="cls-1" d="M71.82,67.76l-1-.78-.06.1,1,.79Z" transform="translate(-32.03 -34.81)"/><path class="cls-1" d="M63.5,58.18c-.07-.36-.13-.71-.2-1.07h0c.06.38.11.76.16,1.14Z" transform="translate(-32.03 -34.81)"/><path class="cls-1" d="M63.65,59.42l-.15-1.24,0,.07.18,1.18Z" transform="translate(-32.03 -34.81)"/><path class="cls-1" d="M62.76,59.35l-.06,1.52h0c0-.51,0-1,.08-1.55C62.8,59.3,62.76,59.35,62.76,59.35Z" transform="translate(-32.03 -34.81)"/><path class="cls-1" d="M65,59.49a1.53,1.53,0,0,1,0,.27s0-.15,0-.34C65,59.4,65,59.49,65,59.49Z" transform="translate(-32.03 -34.81)"/><path class="cls-1" d="M45.34,66.28l-.53-.84Z" transform="translate(-32.03 -34.81)"/><path class="cls-1" d="M55.26,64.66l-.12,0a.75.75,0,0,1,.06-.13Z" transform="translate(-32.03 -34.81)"/><path class="cls-1" d="M47.43,64.61l-.3-1.31-.06.07c.12.42.24.83.37,1.25Z" transform="translate(-32.03 -34.81)"/><polygon class="cls-1" points="29.31 26.64 29.26 26.86 29.28 26.61 29.31 26.64"/><path class="cls-1" d="M58.08,59.3l.13-.08-.07.18A.53.53,0,0,1,58.08,59.3Z" transform="translate(-32.03 -34.81)"/><polygon class="cls-1" points="31.72 26.42 31.9 26.45 31.78 26.48 31.72 26.42"/><path class="cls-1" d="M55.41,61.28h.18s-.11-.09-.12-.08Z" transform="translate(-32.03 -34.81)"/><path class="cls-1" d="M66.07,71.29l.13,0-.08-.12a1.48,1.48,0,0,1,0,.21A.84.84,0,0,1,66.07,71.29Z" transform="translate(-32.03 -34.81)"/><path class="cls-1" d="M59.84,60.3c0,.42,0,.83.07,1.26h0c0-.43,0-.88,0-1.33Z" transform="translate(-32.03 -34.81)"/><path class="cls-1" d="M53.25,71.34l-.52-.83Z" transform="translate(-32.03 -34.81)"/><path class="cls-1" d="M92.46,65.27c-1.56-1.84-1.83-4-.84-6.56l0-.06.81,6.71Z" transform="translate(-32.03 -34.81)"/><path class="cls-1" d="M86.83,64.56,84,60.49l0,.09,2.84,4.08Z" transform="translate(-32.03 -34.81)"/><path class="cls-1" d="M82.53,61.48l2.33,4,0,0-2.26-4Z" transform="translate(-32.03 -34.81)"/><path class="cls-1" d="M86.39,53.26l.39-2.19.26.11-.39,2.19Z" transform="translate(-32.03 -34.81)"/><path class="cls-1" d="M84.86,65.52l2.29,2.22,0-.08-2.31-2.18Z" transform="translate(-32.03 -34.81)"/><path class="cls-1" d="M72.45,55.88c.64.9,1.29,1.81,1.93,2.73l0,0-1.9-2.78Z" transform="translate(-32.03 -34.81)"/><path class="cls-1" d="M75.23,55.17l.93,2-.43.27c-.14-.82-.29-1.63-.44-2.43Z" transform="translate(-32.03 -34.81)"/><path class="cls-1" d="M74.51,54.85l-.57-1.44.37-.17.15,1.7Z" transform="translate(-32.03 -34.81)"/><path class="cls-1" d="M84.82,52.63l.59,2.64.06-.07-.59-2.65Z" transform="translate(-32.03 -34.81)"/><path class="cls-1" d="M91.62,58.71l-.23-2h.27c0,.63-.06,1.27-.08,1.92Z" transform="translate(-32.03 -34.81)"/><path class="cls-1" d="M89.25,51.34c.17-.3.33-.59.07-.12.34-.25.12-.09-.11.07Z" transform="translate(-32.03 -34.81)"/><path class="cls-1" d="M84.88,52.55c-.13-.3-.26-.59-.07-.17,0-.5,0-.13,0,.25Z" transform="translate(-32.03 -34.81)"/><path class="cls-1" d="M89.21,51.29l.34,1.53-.28.08c0-.5,0-1,0-1.54Z" transform="translate(-32.03 -34.81)"/><path class="cls-1" d="M81.07,52.82l.83,1.32h0L81,52.74Z" transform="translate(-32.03 -34.81)"/><path class="cls-1" d="M81.9,54.14v1.58l-.19,0,.18-1.57Z" transform="translate(-32.03 -34.81)"/><path class="cls-1" d="M85.41,55.27l.32,1.33-.34.08c0-.49,0-1,.07-1.48C85.47,55.2,85.41,55.27,85.41,55.27Z" transform="translate(-32.03 -34.81)"/><path class="cls-1" d="M81,52.74l.17-.46-.12.54Z" transform="translate(-32.03 -34.81)"/><path class="cls-1" d="M77.35,53.91c0-.65,0-1.3,0-1.95h0c0,.66,0,1.32,0,2Z" transform="translate(-32.03 -34.81)"/><path class="cls-1" d="M71.1,55.1l.08-.59-.09.64Z" transform="translate(-32.03 -34.81)"/><path class="cls-1" d="M88.49,65.81l.81.74,0,0-.77-.69Z" transform="translate(-32.03 -34.81)"/><path class="cls-1" d="M86.91,66l1.57-.17h0L86.92,66Z" transform="translate(-32.03 -34.81)"/><path class="cls-1" d="M74.87,60.84l.34-.1-.3,0Z" transform="translate(-32.03 -34.81)"/><path class="cls-1" d="M88.16,68.36l.39.26-.25.25q0-.32-.09-.6Z" transform="translate(-32.03 -34.81)"/><path class="cls-1" d="M87.15,67.74l1,.62,0-.09-1-.61Z" transform="translate(-32.03 -34.81)"/><polygon class="cls-1" points="45.27 19.12 45.41 19.19 45.33 19.09 45.27 19.12"/><path class="cls-1" d="M69.09,55.46c-.19-.28-.37-.56-.55-.84C68.72,54.9,68.9,55.18,69.09,55.46Z" transform="translate(-32.03 -34.81)"/><path class="cls-1" d="M71.09,55.15l.72.25,0-.08-.75-.23A.21.21,0,0,0,71.09,55.15Z" transform="translate(-32.03 -34.81)"/><path class="cls-1" d="M74.46,54.94c.25.09.5.17.76.24l.07-.12c-.25-.08-.51-.16-.77-.22Z" transform="translate(-32.03 -34.81)"/><path class="cls-1" d="M72.5,55.79l-.64-.47,0,.08c.21.17.42.34.63.49Z" transform="translate(-32.03 -34.81)"/><path class="cls-1" d="M74.76,59.48c-.12-.29-.25-.59-.36-.9l0,0c.11.3.22.63.33,1C74.7,59.57,74.76,59.48,74.76,59.48Z" transform="translate(-32.03 -34.81)"/><path class="cls-1" d="M89.3,66.55l-.12.09s0-.09.07-.14Z" transform="translate(-32.03 -34.81)"/><polygon class="cls-1" points="60.79 31.4 60.92 31.46 60.86 31.3 60.79 31.4"/><path class="cls-1" d="M92.4,65.36c.13.29.27.57.41.86l.08-.11c-.15-.28-.3-.55-.44-.84C92.46,65.27,92.4,65.36,92.4,65.36Z" transform="translate(-32.03 -34.81)"/><path class="cls-1" d="M86.77,64.66c0,.44.1.88.14,1.32h0c0-.46-.07-.94-.1-1.41Z" transform="translate(-32.03 -34.81)"/><path class="cls-1" d="M82.62,61.51l-.14.13.18,0-.13-.18Z" transform="translate(-32.03 -34.81)"/><polygon class="cls-1" points="51.96 25.67 51.82 25.5 51.9 25.76 51.96 25.67"/><path class="cls-1" d="M74.91,60.78c0-.43-.11-.86-.16-1.29,0,0,0,.08,0,.08.06.41.12.83.17,1.26Z" transform="translate(-32.03 -34.81)"/><path class="cls-1" d="M111.42,54l5.07-3.76-.07-.13-5,3.81Z" transform="translate(-32.03 -34.81)"/><path class="cls-1" d="M133.15,54.5l-5.09,2.08,0,0,5.11-2Z" transform="translate(-32.03 -34.81)"/><path class="cls-1" d="M108.48,63.18l3-4.29.35.68c-1.11,1.2-2.22,2.4-3.34,3.58Z" transform="translate(-32.03 -34.81)"/><path class="cls-1" d="M128.06,56.58l-3.53.77,0-.77h3.55Z" transform="translate(-32.03 -34.81)"/><path class="cls-1" d="M111.58,52.12l-2.72,2.25,0-.09,2.73-2.1Z" transform="translate(-32.03 -34.81)"/><path class="cls-1" d="M121.53,51.5,119.21,53h0l2.32-1.54Z" transform="translate(-32.03 -34.81)"/><path class="cls-1" d="M120.8,53.38l-1.9,2,.06.09,1.84-2.09Z" transform="translate(-32.03 -34.81)"/><path class="cls-1" d="M135.75,54.17l-2.6.33,0,.07c.86-.13,1.73-.25,2.6-.36Z" transform="translate(-32.03 -34.81)"/><path class="cls-1" d="M111.62,52.18,112,50.6l.66.83-1.08.67Z" transform="translate(-32.03 -34.81)"/><path class="cls-1" d="M117.67,53.51,119.2,53h0l-1.6.41Z" transform="translate(-32.03 -34.81)"/><path class="cls-1" d="M112.63,61.53h-.41c.07,0,.13-.13.19-.13S112.54,61.47,112.63,61.53Z" transform="translate(-32.03 -34.81)"/><path class="cls-1" d="M117.61,53.44l-.81.41,0-.44.89.09Z" transform="translate(-32.03 -34.81)"/><path class="cls-1" d="M122.62,53.28l-1.82.11h0l1.87,0Z" transform="translate(-32.03 -34.81)"/><path class="cls-1" d="M113.49,63.55l.38-.75.08.12-.5.73Z" transform="translate(-32.03 -34.81)"/><path class="cls-1" d="M124,55.43l-.78.58-.07-.5h.9Z" transform="translate(-32.03 -34.81)"/><path class="cls-1" d="M108.86,54.37l-.26-.31.29.21Z" transform="translate(-32.03 -34.81)"/><path class="cls-1" d="M111.38,53.91,110.64,55l0,.09c.25-.36.49-.72.74-1.07Z" transform="translate(-32.03 -34.81)"/><path class="cls-1" d="M110.64,55l-1.32.1.05.07,1.31-.1S110.64,55,110.64,55Z" transform="translate(-32.03 -34.81)"/><path class="cls-1" d="M113.45,63.65l-.27-.36.31.25Z" transform="translate(-32.03 -34.81)"/><path class="cls-1" d="M106.89,63l1.59.21v0c-.53-.06-1.07-.13-1.61-.22Z" transform="translate(-32.03 -34.81)"/><path class="cls-1" d="M118.9,55.4l-.11.13c-.16,0,0,0,.17,0Z" transform="translate(-32.03 -34.81)"/><path class="cls-1" d="M123.11,57.75l.06.23-.25-.14Z" transform="translate(-32.03 -34.81)"/><polygon class="cls-1" points="81.96 15.26 81.85 15.1 81.99 15.22 81.96 15.26"/><path class="cls-1" d="M109.32,55.07l.16.54c0-.15-.06-.29-.1-.45Z" transform="translate(-32.03 -34.81)"/><path class="cls-1" d="M130.78,58v.22l-.06-.12Z" transform="translate(-32.03 -34.81)"/><path class="cls-1" d="M100.53,64.41V76.78h-.21V64.46Z" transform="translate(-32.03 -34.81)"/><path class="cls-1" d="M43.68,68.87l4,.84-.17,1.05-3.8-1.91Z" transform="translate(-32.03 -34.81)"/><path class="cls-1" d="M43.66,68.85l0-.25a2.44,2.44,0,0,0,0,.27Z" transform="translate(-32.03 -34.81)"/></svg>